<svg xmlns="http://www.w3.org/2000/svg" width="16.667" height="16.667" viewBox="0 0 16.667 16.667">
  <path id="Icon_material-photo-library" data-name="Icon material-photo-library" d="M18.333,13.333v-10a1.672,1.672,0,0,0-1.667-1.667h-10A1.672,1.672,0,0,0,5,3.333v10A1.672,1.672,0,0,0,6.667,15h10a1.672,1.672,0,0,0,1.667-1.667ZM9.167,10l1.692,2.258,2.475-3.092,3.333,4.167h-10L9.167,10Zm-7.5-5V16.667a1.672,1.672,0,0,0,1.667,1.667H15V16.667H3.333V5Z" transform="translate(-1.667 -1.667)" fill="#9956f6"/>
</svg>
