<svg xmlns="http://www.w3.org/2000/svg" width="20" height="15" viewBox="0 0 20 15">
  <path id="Icon_awesome-hand-point-right" data-name="Icon awesome-hand-point-right" d="M20,7.8a1.761,1.761,0,0,1-1.75,1.712h-3.9a1.921,1.921,0,0,1-.246,2.771,1.789,1.789,0,0,1-.643,2.434c.351,1.92-.857,2.784-2.836,2.784-.107,0-.519-.008-.625-.008C7.579,17.5,7,16.279,5.167,16a.936.936,0,0,1-.792-.926V8.37h0A1.875,1.875,0,0,1,5.487,6.657c1.128-.508,3.727-1.916,4.2-3.02A1.665,1.665,0,0,1,11.25,2.5a1.876,1.876,0,0,1,1.723,2.614,5.309,5.309,0,0,1-.553.973H18.25A1.79,1.79,0,0,1,20,7.8ZM3.75,7.813v7.5a.937.937,0,0,1-.937.938H.938A.937.937,0,0,1,0,15.313v-7.5a.937.937,0,0,1,.938-.937H2.813A.937.937,0,0,1,3.75,7.813ZM2.656,14.375a.781.781,0,1,0-.781.781A.781.781,0,0,0,2.656,14.375Z" transform="translate(0 -2.5)" fill="#9956f6"/>
</svg>
