<svg xmlns="http://www.w3.org/2000/svg" width="12.487" height="15.629" viewBox="0 0 12.487 15.629">
  <g id="Icon_ionic-ios-notifications-outline" data-name="Icon ionic-ios-notifications-outline" transform="translate(-3.764 -2.184)">
    <path id="Caminho_255" data-name="Caminho 255" d="M11.316,15.742a.506.506,0,0,0-.5.4.979.979,0,0,1-.2.426A.738.738,0,0,1,10,16.8a.751.751,0,0,1-.629-.23.979.979,0,0,1-.2-.426.506.506,0,0,0-.5-.4h0a.509.509,0,0,0-.5.621A1.745,1.745,0,0,0,10,17.813a1.742,1.742,0,0,0,1.816-1.449.511.511,0,0,0-.5-.621Z" fill="#e0dbe6"/>
    <path id="Caminho_256" data-name="Caminho 256" d="M16.094,13.758c-.6-.793-1.785-1.258-1.785-4.809C14.309,5.3,12.7,3.84,11.2,3.488c-.141-.035-.242-.082-.242-.23V3.145a.958.958,0,0,0-.937-.961H10a.958.958,0,0,0-.937.961v.113c0,.145-.1.2-.242.23-1.5.355-3.109,1.816-3.109,5.461,0,3.551-1.184,4.012-1.785,4.809A.775.775,0,0,0,4.543,15H15.484A.776.776,0,0,0,16.094,13.758Zm-1.523.227H5.461a.171.171,0,0,1-.129-.285,4.732,4.732,0,0,0,.82-1.3,8.852,8.852,0,0,0,.559-3.445,5.991,5.991,0,0,1,.816-3.391A2.506,2.506,0,0,1,9.039,4.48a1.369,1.369,0,0,0,.727-.41.309.309,0,0,1,.465-.008,1.415,1.415,0,0,0,.734.418,2.506,2.506,0,0,1,1.512,1.078,5.991,5.991,0,0,1,.816,3.391,8.852,8.852,0,0,0,.559,3.445,4.786,4.786,0,0,0,.84,1.324A.161.161,0,0,1,14.57,13.984Z" fill="#e0dbe6"/>
  </g>
</svg>
