<svg id="Icon_feather-settings" data-name="Icon feather-settings" xmlns="http://www.w3.org/2000/svg" width="20" height="20" viewBox="0 0 20 20">
  <path id="Caminho_259" data-name="Caminho 259" d="M12.5,10A2.5,2.5,0,1,1,10,7.5,2.5,2.5,0,0,1,12.5,10Z" fill="none" stroke="#e0dbe6" stroke-linecap="round" stroke-linejoin="round" stroke-width="1.667"/>
  <path id="Caminho_260" data-name="Caminho 260" d="M16.167,12.5a1.375,1.375,0,0,0,.275,1.517l.05.05a1.668,1.668,0,1,1-2.358,2.358l-.05-.05a1.386,1.386,0,0,0-2.35.983V17.5a1.667,1.667,0,0,1-3.333,0v-.075a1.375,1.375,0,0,0-.9-1.258,1.375,1.375,0,0,0-1.517.275l-.05.05a1.668,1.668,0,1,1-2.358-2.358l.05-.05a1.386,1.386,0,0,0-.983-2.35H2.5A1.667,1.667,0,0,1,2.5,8.4h.075a1.375,1.375,0,0,0,1.258-.9,1.375,1.375,0,0,0-.275-1.517l-.05-.05A1.668,1.668,0,1,1,5.867,3.575l.05.05A1.375,1.375,0,0,0,7.433,3.9H7.5a1.375,1.375,0,0,0,.833-1.258V2.5a1.667,1.667,0,0,1,3.333,0v.075a1.386,1.386,0,0,0,2.35.983l.05-.05a1.668,1.668,0,1,1,2.358,2.358l-.05.05A1.375,1.375,0,0,0,16.1,7.433V7.5a1.375,1.375,0,0,0,1.258.833H17.5a1.667,1.667,0,0,1,0,3.333h-.075a1.375,1.375,0,0,0-1.258.833Z" fill="none" stroke="#e0dbe6" stroke-linecap="round" stroke-linejoin="round" stroke-width="1.667"/>
</svg>
