<svg xmlns="http://www.w3.org/2000/svg" width="20.69" height="20.69" viewBox="0 0 20.69 20.69">
  <g id="Icon_feather-eye-off" data-name="Icon feather-eye-off" transform="translate(0.345 0.345)">
    <path id="Caminho_1" data-name="Caminho 1" d="M14.95,14.95A8.392,8.392,0,0,1,10,16.667C4.167,16.667.833,10,.833,10A15.375,15.375,0,0,1,5.05,5.05m3.2-1.517a7.6,7.6,0,0,1,1.75-.2c5.833,0,9.167,6.667,9.167,6.667a15.417,15.417,0,0,1-1.8,2.658m-5.6-.892A2.5,2.5,0,1,1,8.233,8.233" fill="none" stroke="#e0dbe6" stroke-linecap="round" stroke-linejoin="round" stroke-width="1.667"/>
    <path id="Caminho_2" data-name="Caminho 2" d="M.833.833,19.167,19.167" fill="none" stroke="#e0dbe6" stroke-linecap="round" stroke-linejoin="round" stroke-width="1.667"/>
  </g>
</svg>
